<?xml version="1.0" standalone="no"?>
<!DOCTYPE svg PUBLIC "-//W3C//DTD SVG 20010904//EN"
 "http://www.w3.org/TR/2001/REC-SVG-20010904/DTD/svg10.dtd">
<svg version="1.0" xmlns="http://www.w3.org/2000/svg"
 width="500.000000pt" height="500.000000pt" viewBox="0 0 500.000000 500.000000"
 preserveAspectRatio="xMidYMid meet">

<g transform="translate(0.000000,500.000000) scale(0.100000,-0.100000)"
fill="#000000" stroke="none">
<path d="M2430 4571 c-75 -23 -138 -81 -160 -146 -8 -23 -17 -35 -25 -31 -62
24 -98 27 -148 12 -179 -52 -183 -304 -7 -357 l40 -12 0 -59 c0 -38 -4 -60
-12 -62 -7 -2 -76 -21 -153 -41 -159 -43 -232 -73 -395 -163 -147 -82 -185
-108 -299 -206 -259 -223 -473 -541 -566 -843 l-38 -122 28 -37 c16 -21 39
-63 52 -93 22 -55 23 -62 23 -458 l0 -403 -26 -17 c-21 -14 -25 -22 -20 -47 8
-42 114 -256 166 -336 97 -148 115 -172 208 -273 280 -303 627 -493 1043 -568
164 -30 455 -37 609 -15 249 37 403 82 595 176 228 112 402 243 580 437 l117
127 -59 56 c-85 80 -231 212 -283 255 -25 21 -70 62 -100 91 l-55 54 -15 -22
c-136 -205 -289 -349 -475 -446 -167 -87 -367 -128 -585 -118 -337 14 -564
115 -796 352 -140 142 -237 317 -297 534 -18 65 -21 105 -21 295 -1 152 3 239
13 280 75 332 249 596 506 769 236 159 549 228 818 181 118 -21 294 -85 387
-141 168 -101 289 -218 396 -381 31 -46 60 -83 64 -81 15 5 313 263 473 408
l39 36 -102 114 c-230 260 -469 436 -754 554 -33 14 -239 70 -329 90 -27 6
-28 9 -25 62 l3 55 54 22 c69 28 111 78 118 141 9 73 -4 112 -50 160 -63 66
-112 75 -222 41 -17 -5 -23 2 -39 40 -42 104 -171 168 -276 136z m-130 -431
c18 -18 20 -33 20 -195 l0 -175 60 0 60 0 2 48 c1 26 2 109 3 185 0 146 5 160
50 155 37 -5 47 -44 41 -168 -3 -64 -3 -139 1 -168 l6 -52 58 0 59 0 0 173 c0
184 8 217 50 217 10 0 26 -10 34 -22 13 -19 16 -61 16 -255 l0 -233 207 0
c178 0 209 -2 225 -17 22 -20 23 -70 1 -95 -15 -17 -50 -18 -699 -18 l-683 0
-21 27 c-15 19 -19 35 -15 53 11 47 25 50 242 50 l203 0 0 239 c0 204 2 242
16 255 21 21 40 20 64 -4z m1186 -711 c40 -40 44 -41 72 -30 39 16 81 4 93
-27 12 -31 3 -59 -23 -73 -20 -11 -20 -11 5 -37 14 -15 28 -37 31 -49 7 -23
-17 -83 -33 -83 -5 0 -16 -3 -24 -6 -9 -3 -26 6 -41 23 -26 29 -28 29 -110 25
-80 -4 -86 -3 -110 21 -30 30 -31 36 -12 62 13 17 17 18 40 6 21 -12 31 -12
53 -2 l27 12 -42 38 c-37 34 -62 75 -62 102 0 19 49 59 72 59 13 0 40 -18 64
-41z m-1834 14 c27 -24 23 -69 -7 -89 -34 -22 -69 -12 -85 26 -25 60 43 107
92 63z m-164 -167 c5 -45 -38 -64 -58 -26 -18 33 -3 62 28 58 21 -2 28 -9 30
-32z m-109 -56 c4 0 13 -12 19 -26 17 -36 -9 -83 -45 -84 -20 0 -53 38 -53 60
0 26 37 63 57 56 8 -3 18 -6 22 -6z m179 -52 c7 -7 12 -21 12 -33 0 -28 -19
-45 -50 -45 -32 0 -51 34 -39 68 9 25 56 31 77 10z m-360 -205 c15 -11 37 -35
50 -53 21 -31 22 -42 22 -222 l0 -190 -29 -29 c-20 -20 -39 -29 -61 -29 l-32
0 4 -482 4 -483 32 -56 c34 -58 39 -96 21 -132 -34 -66 -93 -91 -146 -63 -74
38 -90 134 -35 211 l32 46 0 478 0 479 -41 7 c-31 5 -45 15 -60 39 -18 28 -20
47 -17 217 3 184 3 186 30 221 15 19 42 42 60 52 44 22 129 17 166 -11z m241
-1939 c26 -33 27 -58 1 -84 -40 -40 -110 -15 -110 39 0 68 69 96 109 45z
m2168 4 c46 -44 17 -108 -49 -108 -33 0 -68 31 -68 60 0 28 43 70 71 70 13 0
33 -10 46 -22z m-1898 -189 c93 -105 42 -99 760 -99 439 0 635 3 662 11 47 15
103 60 135 110 22 36 28 39 69 39 43 0 45 -1 45 -30 0 -55 -45 -127 -111 -175
-106 -78 -83 -76 -805 -73 l-639 3 -67 32 c-105 49 -188 146 -188 217 0 24 3
26 43 26 40 0 46 -4 96 -61z m815 -300 c42 -33 30 -87 -25 -104 -24 -8 -65 16
-74 44 -8 26 10 60 38 71 31 12 31 12 61 -11z"/>
<path d="M1082 1358 c-18 -18 -15 -36 9 -48 24 -13 49 2 49 30 0 27 -37 39
-58 18z"/>
<path d="M1215 4188 c-82 -79 -154 -157 -162 -175 -7 -18 -13 -54 -13 -81 l0
-49 -184 -182 c-101 -100 -192 -188 -202 -195 -11 -7 -40 -15 -66 -18 -37 -4
-60 -16 -112 -57 -144 -115 -187 -204 -136 -286 27 -44 66 -65 122 -65 56 0
93 23 183 117 80 83 103 136 91 212 -6 37 -5 37 177 219 l183 182 32 -11 c18
-6 60 -9 92 -7 73 5 91 17 261 178 107 101 129 126 129 150 0 23 -19 48 -87
119 -126 130 -119 131 -308 -51z m213 36 c2 -15 -21 -44 -83 -103 -47 -45 -91
-81 -98 -78 -7 2 -13 15 -15 28 -2 20 14 41 78 102 82 79 112 92 118 51z m82
-79 c19 -23 4 -46 -80 -120 -76 -66 -102 -76 -109 -40 -2 14 20 41 80 97 46
42 87 77 90 78 4 0 12 -7 19 -15z m-996 -881 c35 -34 8 -104 -41 -104 -27 0
-63 33 -63 58 0 52 68 82 104 46z"/>
<path d="M3353 4250 c-18 -7 -23 -17 -23 -47 1 -106 150 -301 281 -368 81 -42
122 -49 179 -35 25 6 53 12 62 13 11 1 90 -70 202 -182 l184 -184 -5 -52 c-8
-78 10 -118 94 -206 90 -94 145 -125 197 -111 55 16 93 48 111 96 25 65 9 102
-87 202 -86 90 -126 114 -185 114 -36 0 -47 9 -241 203 -157 157 -202 208
-202 228 0 109 -91 223 -221 277 -117 48 -291 74 -346 52z m472 -329 c0 -40
-21 -57 -58 -47 -21 5 -27 12 -27 34 0 37 18 54 55 50 27 -3 30 -7 30 -37z
m701 -649 c6 -4 17 -18 24 -31 10 -20 9 -27 -7 -50 -35 -46 -83 -38 -104 17
-19 48 43 94 87 64z"/>
<path d="M2355 3016 c-99 -23 -167 -53 -262 -115 -202 -134 -338 -343 -390
-601 -20 -99 -20 -302 1 -405 81 -406 386 -679 786 -702 227 -13 467 72 643
227 73 65 73 64 9 162 -31 47 -62 94 -68 104 -11 18 -14 17 -55 -12 -55 -39
-127 -76 -199 -100 -44 -15 -84 -19 -205 -19 l-150 0 -69 34 c-267 131 -372
504 -228 806 93 194 252 284 482 272 125 -6 244 -44 342 -110 57 -38 62 -40
72 -23 6 11 37 59 68 107 l57 88 -24 29 c-35 42 -180 149 -247 183 -125 63
-201 81 -358 85 -101 3 -163 0 -205 -10z"/>
<path d="M4195 2865 c-50 -49 -26 -113 52 -144 35 -14 59 -58 48 -91 -4 -11
-31 -37 -61 -57 -53 -35 -60 -46 -48 -77 10 -25 48 -19 100 17 65 43 94 88 94
146 0 58 -26 102 -80 136 -38 24 -40 28 -34 60 6 33 5 35 -20 35 -15 0 -38
-11 -51 -25z"/>
<path d="M4461 2864 c-28 -36 -27 -85 2 -112 13 -12 28 -22 34 -22 6 0 22 -9
37 -21 40 -32 36 -80 -10 -116 -87 -67 -88 -68 -75 -91 16 -29 36 -28 97 8
126 72 136 217 19 285 -34 20 -44 32 -39 44 13 33 9 46 -17 49 -19 2 -33 -4
-48 -24z"/>
<path d="M302 2778 c-19 -19 -15 -66 8 -78 18 -10 20 -21 20 -133 l0 -122 -50
-23 c-63 -29 -105 -84 -120 -157 -7 -33 -10 -141 -8 -283 3 -216 4 -232 24
-259 l21 -28 211 -3 212 -2 5 23 c4 13 5 152 3 308 -3 277 -4 285 -27 325 -14
25 -44 55 -77 75 l-53 34 -1 117 c0 107 2 118 20 128 23 12 27 59 8 78 -16 16
-180 16 -196 0z m39 -454 c10 -12 10 -19 1 -32 -50 -71 -47 -49 -51 -399 -1
-121 -3 -133 -19 -133 -39 0 -42 16 -42 237 0 225 4 248 50 314 24 33 41 37
61 13z"/>
<path d="M4011 2376 c-9 -10 -11 -68 -9 -203 l3 -189 32 -64 c47 -96 82 -132
169 -176 73 -37 82 -39 168 -39 83 0 97 3 158 33 88 43 123 73 160 139 17 30
37 53 46 53 27 0 115 45 139 71 31 34 63 108 63 148 0 99 -56 176 -158 215
l-67 26 -346 0 c-288 0 -349 -2 -358 -14z m647 -148 l-3 -73 -259 -3 -259 -2
5 -68 c6 -81 30 -131 92 -192 48 -46 56 -67 31 -76 -36 -14 -125 70 -160 151
-18 41 -34 286 -22 319 6 14 43 16 292 16 l286 0 -3 -72z m144 32 c58 -45 68
-121 26 -183 -17 -23 -65 -57 -83 -57 -7 0 -6 224 1 244 8 21 26 20 56 -4z"/>
<path d="M158 1509 c-27 -15 -24 -74 4 -93 32 -23 54 -20 77 11 44 55 -19 119
-81 82z"/>
<path d="M452 1508 c-17 -17 -15 -74 4 -92 35 -35 94 -4 94 50 0 43 -68 72
-98 42z"/>
<path d="M4025 1506 c-11 -8 -18 -26 -18 -46 0 -56 54 -79 93 -40 53 53 -14
131 -75 86z"/>
<path d="M4326 1498 c-9 -12 -16 -29 -16 -38 0 -9 7 -26 16 -38 31 -45 104
-17 104 40 0 53 -74 79 -104 36z"/>
<path d="M4647 1502 c-32 -35 -10 -102 34 -102 28 0 59 31 59 59 0 53 -60 80
-93 43z"/>
<path d="M502 1217 c-21 -23 -22 -30 -22 -299 0 -263 1 -276 21 -302 25 -32
70 -35 99 -6 19 19 20 33 20 305 0 272 -1 286 -20 305 -27 27 -71 26 -98 -3z"/>
<path d="M4319 1221 l-24 -19 0 -285 c0 -266 1 -286 19 -306 26 -29 76 -28
104 2 22 23 22 30 22 305 0 269 -1 283 -20 302 -25 25 -71 26 -101 1z"/>
</g>
</svg>
