<svg width="94" height="34" viewBox="0 0 94 34" fill="none" xmlns="http://www.w3.org/2000/svg">
<path d="M13.2757 5.54688H10.165C10.1081 5.14441 9.99213 4.78693 9.81694 4.47443C9.64175 4.1572 9.41684 3.88731 9.14222 3.66477C8.8676 3.44223 8.55037 3.27178 8.19052 3.15341C7.8354 3.03504 7.44951 2.97585 7.03285 2.97585C6.28001 2.97585 5.62423 3.16288 5.06552 3.53693C4.50681 3.90625 4.07357 4.44602 3.7658 5.15625C3.45804 5.86174 3.30415 6.71875 3.30415 7.72727C3.30415 8.7642 3.45804 9.63542 3.7658 10.3409C4.0783 11.0464 4.51391 11.5791 5.07262 11.9389C5.63133 12.2988 6.27764 12.4787 7.01154 12.4787C7.42347 12.4787 7.80463 12.4242 8.15501 12.3153C8.51012 12.2064 8.82499 12.0478 9.09961 11.8395C9.37423 11.6264 9.6015 11.3684 9.78143 11.0653C9.96609 10.7623 10.0939 10.4167 10.165 10.0284L13.2757 10.0426C13.1953 10.7102 12.994 11.3542 12.6721 11.9744C12.3548 12.59 11.9263 13.1416 11.3865 13.6293C10.8515 14.1122 10.2123 14.4957 9.46893 14.7798C8.73029 15.0592 7.89459 15.1989 6.96183 15.1989C5.66448 15.1989 4.50444 14.9053 3.48171 14.3182C2.46372 13.7311 1.6588 12.8812 1.06694 11.7685C0.479818 10.6558 0.186257 9.30871 0.186257 7.72727C0.186257 6.1411 0.484553 4.79167 1.08114 3.67898C1.67773 2.56629 2.48739 1.71875 3.51012 1.13636C4.53285 0.549242 5.68342 0.255681 6.96183 0.255681C7.80463 0.255681 8.58588 0.374053 9.30558 0.610795C10.03 0.847538 10.6716 1.19318 11.2303 1.64773C11.789 2.09754 12.2435 2.64915 12.5939 3.30256C12.949 3.95597 13.1763 4.70407 13.2757 5.54688ZM28.8475 7.72727C28.8475 9.31345 28.5468 10.6629 27.9455 11.7756C27.3489 12.8883 26.5345 13.7382 25.5023 14.3253C24.4748 14.9077 23.3195 15.1989 22.0364 15.1989C20.7438 15.1989 19.5837 14.9053 18.5563 14.3182C17.5288 13.7311 16.7168 12.8812 16.1202 11.7685C15.5236 10.6558 15.2253 9.30871 15.2253 7.72727C15.2253 6.1411 15.5236 4.79167 16.1202 3.67898C16.7168 2.56629 17.5288 1.71875 18.5563 1.13636C19.5837 0.549242 20.7438 0.255681 22.0364 0.255681C23.3195 0.255681 24.4748 0.549242 25.5023 1.13636C26.5345 1.71875 27.3489 2.56629 27.9455 3.67898C28.5468 4.79167 28.8475 6.1411 28.8475 7.72727ZM25.7296 7.72727C25.7296 6.69981 25.5757 5.83333 25.2679 5.12784C24.9649 4.42235 24.5364 3.88731 23.9824 3.52273C23.4284 3.15814 22.7798 2.97585 22.0364 2.97585C21.293 2.97585 20.6444 3.15814 20.0904 3.52273C19.5364 3.88731 19.1055 4.42235 18.7978 5.12784C18.4947 5.83333 18.3432 6.69981 18.3432 7.72727C18.3432 8.75473 18.4947 9.62121 18.7978 10.3267C19.1055 11.0322 19.5364 11.5672 20.0904 11.9318C20.6444 12.2964 21.293 12.4787 22.0364 12.4787C22.7798 12.4787 23.4284 12.2964 23.9824 11.9318C24.5364 11.5672 24.9649 11.0322 25.2679 10.3267C25.5757 9.62121 25.7296 8.75473 25.7296 7.72727ZM44.492 7.72727C44.492 9.31345 44.1913 10.6629 43.59 11.7756C42.9934 12.8883 42.179 13.7382 41.1468 14.3253C40.1194 14.9077 38.9641 15.1989 37.6809 15.1989C36.3883 15.1989 35.2283 14.9053 34.2008 14.3182C33.1734 13.7311 32.3613 12.8812 31.7647 11.7685C31.1681 10.6558 30.8699 9.30871 30.8699 7.72727C30.8699 6.1411 31.1681 4.79167 31.7647 3.67898C32.3613 2.56629 33.1734 1.71875 34.2008 1.13636C35.2283 0.549242 36.3883 0.255681 37.6809 0.255681C38.9641 0.255681 40.1194 0.549242 41.1468 1.13636C42.179 1.71875 42.9934 2.56629 43.59 3.67898C44.1913 4.79167 44.492 6.1411 44.492 7.72727ZM41.3741 7.72727C41.3741 6.69981 41.2202 5.83333 40.9125 5.12784C40.6094 4.42235 40.1809 3.88731 39.627 3.52273C39.073 3.15814 38.4243 2.97585 37.6809 2.97585C36.9376 2.97585 36.2889 3.15814 35.7349 3.52273C35.1809 3.88731 34.7501 4.42235 34.4423 5.12784C34.1393 5.83333 33.9877 6.69981 33.9877 7.72727C33.9877 8.75473 34.1393 9.62121 34.4423 10.3267C34.7501 11.0322 35.1809 11.5672 35.7349 11.9318C36.2889 12.2964 36.9376 12.4787 37.6809 12.4787C38.4243 12.4787 39.073 12.2964 39.627 11.9318C40.1809 11.5672 40.6094 11.0322 40.9125 10.3267C41.2202 9.62121 41.3741 8.75473 41.3741 7.72727ZM46.7701 15V0.454545H49.8453V6.8679H50.0371L55.2715 0.454545H58.9576L53.5598 6.96733L59.0215 15H55.3425L51.3581 9.01989L49.8453 10.8665V15H46.7701ZM63.6344 0.454545V15H60.5591V0.454545H63.6344ZM78.3308 0.454545V15H75.6745L69.3464 5.84517H69.2399V15H66.1646V0.454545H68.8635L75.1419 9.60227H75.2697V0.454545H78.3308ZM90.5165 5.15625C90.4171 4.81061 90.2774 4.50521 90.0975 4.24006C89.9176 3.97017 89.6974 3.7429 89.437 3.55824C89.1813 3.36884 88.8877 3.22443 88.5563 3.125C88.2296 3.02557 87.8674 2.97585 87.4696 2.97585C86.7263 2.97585 86.0729 3.16051 85.5094 3.52983C84.9507 3.89915 84.5151 4.43655 84.2026 5.14205C83.8901 5.8428 83.7338 6.69981 83.7338 7.71307C83.7338 8.72633 83.8877 9.58807 84.1955 10.2983C84.5033 11.0085 84.9389 11.5507 85.5023 11.9247C86.0658 12.294 86.731 12.4787 87.498 12.4787C88.1941 12.4787 88.7883 12.3556 89.2807 12.1094C89.7779 11.8584 90.1567 11.5057 90.4171 11.0511C90.6822 10.5966 90.8148 10.0592 90.8148 9.43892L91.4398 9.53125H87.6898V7.21591H93.7765V9.0483C93.7765 10.3267 93.5066 11.4252 92.9668 12.3438C92.427 13.2576 91.6837 13.9631 90.7367 14.4602C89.7897 14.9527 88.7054 15.1989 87.4838 15.1989C86.1202 15.1989 84.9223 14.8982 83.8901 14.2969C82.8579 13.6908 82.053 12.8314 81.4753 11.7188C80.9024 10.6013 80.6159 9.27557 80.6159 7.74148C80.6159 6.5625 80.7864 5.51136 81.1273 4.58807C81.473 3.66004 81.9559 2.87405 82.5762 2.23011C83.1964 1.58617 83.9185 1.09612 84.7424 0.759943C85.5662 0.423768 86.4587 0.255681 87.4199 0.255681C88.2438 0.255681 89.0108 0.37642 89.7211 0.617898C90.4313 0.85464 91.061 1.19081 91.6103 1.62642C92.1642 2.06203 92.6164 2.58049 92.9668 3.18182C93.3172 3.77841 93.5421 4.43655 93.6415 5.15625H90.5165ZM10.5238 30.2003C10.2425 30.2003 10.0011 30.1009 9.79936 29.902C9.6005 29.7003 9.50107 29.4588 9.50107 29.1776C9.50107 28.8991 9.6005 28.6605 9.79936 28.4616C10.0011 28.2628 10.2425 28.1634 10.5238 28.1634C10.7965 28.1634 11.0352 28.2628 11.2397 28.4616C11.4442 28.6605 11.5465 28.8991 11.5465 29.1776C11.5465 29.3651 11.4982 29.5369 11.4016 29.6932C11.3079 29.8466 11.1843 29.9702 11.0309 30.0639C10.8775 30.1548 10.7085 30.2003 10.5238 30.2003ZM16.8754 30.2003C16.5941 30.2003 16.3526 30.1009 16.1509 29.902C15.9521 29.7003 15.8526 29.4588 15.8526 29.1776C15.8526 28.8991 15.9521 28.6605 16.1509 28.4616C16.3526 28.2628 16.5941 28.1634 16.8754 28.1634C17.1481 28.1634 17.3867 28.2628 17.5913 28.4616C17.7958 28.6605 17.8981 28.8991 17.8981 29.1776C17.8981 29.3651 17.8498 29.5369 17.7532 29.6932C17.6594 29.8466 17.5359 29.9702 17.3825 30.0639C17.229 30.1548 17.06 30.2003 16.8754 30.2003ZM29.9002 27.3281H28.0337C27.9996 27.0866 27.93 26.8722 27.8249 26.6847C27.7198 26.4943 27.5849 26.3324 27.4201 26.1989C27.2553 26.0653 27.065 25.9631 26.8491 25.892C26.636 25.821 26.4045 25.7855 26.1545 25.7855C25.7028 25.7855 25.3093 25.8977 24.9741 26.1222C24.6388 26.3437 24.3789 26.6676 24.1942 27.0938C24.0096 27.517 23.9173 28.0312 23.9173 28.6364C23.9173 29.2585 24.0096 29.7812 24.1942 30.2045C24.3817 30.6278 24.6431 30.9474 24.9783 31.1634C25.3136 31.3793 25.7013 31.4872 26.1417 31.4872C26.3888 31.4872 26.6175 31.4545 26.8278 31.3892C27.0408 31.3239 27.2298 31.2287 27.3945 31.1037C27.5593 30.9759 27.6957 30.821 27.8036 30.6392C27.9144 30.4574 27.9911 30.25 28.0337 30.017L29.9002 30.0256C29.8519 30.4261 29.7312 30.8125 29.538 31.1847C29.3477 31.554 29.0906 31.8849 28.7667 32.1776C28.4457 32.4673 28.0621 32.6974 27.6161 32.8679C27.1729 33.0355 26.6715 33.1193 26.1119 33.1193C25.3335 33.1193 24.6374 32.9432 24.0238 32.5909C23.413 32.2386 22.93 31.7287 22.5749 31.0611C22.2227 30.3935 22.0465 29.5852 22.0465 28.6364C22.0465 27.6847 22.2255 26.875 22.5835 26.2074C22.9414 25.5398 23.4272 25.0312 24.0408 24.6818C24.6545 24.3295 25.3448 24.1534 26.1119 24.1534C26.6175 24.1534 27.0863 24.2244 27.5181 24.3665C27.9528 24.5085 28.3377 24.7159 28.6729 24.9886C29.0082 25.2585 29.2809 25.5895 29.4911 25.9815C29.7042 26.3736 29.8406 26.8224 29.9002 27.3281ZM32.5636 33H30.5863L33.5991 24.2727H35.9769L38.9854 33H37.0082L34.8221 26.267H34.7539L32.5636 33ZM32.44 29.5696H37.1104V31.0099H32.44V29.5696ZM47.3356 24.2727V33H45.7418L41.945 27.5071H41.881V33H40.0359V24.2727H41.6552L45.4222 29.7614H45.4989V24.2727H47.3356ZM50.4368 24.2727L52.5462 30.9034H52.6271L54.7408 24.2727H56.7862L53.7777 33H51.3999L48.3871 24.2727H50.4368ZM58.1808 33H56.2035L59.2163 24.2727H61.5941L64.6026 33H62.6254L60.4393 26.267H60.3711L58.1808 33ZM58.0572 29.5696H62.7276V31.0099H58.0572V29.5696ZM70.1882 26.7827C70.1541 26.4389 70.0078 26.1719 69.7493 25.9815C69.4908 25.7912 69.1399 25.696 68.6967 25.696C68.3956 25.696 68.1413 25.7386 67.9339 25.8239C67.7266 25.9062 67.5675 26.0213 67.4567 26.169C67.3487 26.3168 67.2947 26.4844 67.2947 26.6719C67.2891 26.8281 67.3217 26.9645 67.3928 27.081C67.4666 27.1974 67.5675 27.2983 67.6953 27.3835C67.8232 27.4659 67.9709 27.5384 68.1385 27.6009C68.3061 27.6605 68.4851 27.7116 68.6754 27.7543L69.4595 27.9418C69.8402 28.027 70.1896 28.1406 70.5078 28.2827C70.826 28.4247 71.1016 28.5994 71.3345 28.8068C71.5675 29.0142 71.7479 29.2585 71.8757 29.5398C72.0064 29.821 72.0732 30.1435 72.076 30.5071C72.0732 31.0412 71.9368 31.5043 71.6669 31.8963C71.3999 32.2855 71.0135 32.5881 70.5078 32.804C70.005 33.017 69.3984 33.1236 68.6882 33.1236C67.9837 33.1236 67.37 33.0156 66.8473 32.7997C66.3274 32.5838 65.9212 32.2642 65.6286 31.8409C65.3388 31.4148 65.1868 30.8878 65.1726 30.2599H66.9581C66.978 30.5526 67.0618 30.7969 67.2095 30.9929C67.3601 31.1861 67.5604 31.3324 67.8104 31.4318C68.0632 31.5284 68.3487 31.5767 68.6669 31.5767C68.9794 31.5767 69.2507 31.5312 69.4808 31.4403C69.7138 31.3494 69.8942 31.223 70.022 31.0611C70.1499 30.8991 70.2138 30.7131 70.2138 30.5028C70.2138 30.3068 70.1555 30.142 70.0391 30.0085C69.9254 29.875 69.7578 29.7614 69.5362 29.6676C69.3175 29.5739 69.049 29.4886 68.7308 29.4119L67.7805 29.1733C67.0447 28.9943 66.4638 28.7145 66.0376 28.3338C65.6115 27.9531 65.3999 27.4403 65.4027 26.7955C65.3999 26.267 65.5405 25.8054 65.8246 25.4105C66.1115 25.0156 66.505 24.7074 67.005 24.4858C67.505 24.2642 68.0732 24.1534 68.7095 24.1534C69.3572 24.1534 69.9226 24.2642 70.4055 24.4858C70.8913 24.7074 71.2692 25.0156 71.5391 25.4105C71.8089 25.8054 71.9482 26.2628 71.9567 26.7827H70.1882ZM77.1214 30.2003C76.8402 30.2003 76.5987 30.1009 76.397 29.902C76.1982 29.7003 76.0987 29.4588 76.0987 29.1776C76.0987 28.8991 76.1982 28.6605 76.397 28.4616C76.5987 28.2628 76.8402 28.1634 77.1214 28.1634C77.3942 28.1634 77.6328 28.2628 77.8374 28.4616C78.0419 28.6605 78.1442 28.8991 78.1442 29.1776C78.1442 29.3651 78.0959 29.5369 77.9993 29.6932C77.9055 29.8466 77.782 29.9702 77.6286 30.0639C77.4751 30.1548 77.3061 30.2003 77.1214 30.2003ZM83.473 30.2003C83.1918 30.2003 82.9503 30.1009 82.7486 29.902C82.5497 29.7003 82.4503 29.4588 82.4503 29.1776C82.4503 28.8991 82.5497 28.6605 82.7486 28.4616C82.9503 28.2628 83.1918 28.1634 83.473 28.1634C83.7457 28.1634 83.9844 28.2628 84.1889 28.4616C84.3935 28.6605 84.4957 28.8991 84.4957 29.1776C84.4957 29.3651 84.4474 29.5369 84.3509 29.6932C84.2571 29.8466 84.1335 29.9702 83.9801 30.0639C83.8267 30.1548 83.6577 30.2003 83.473 30.2003Z" fill="black"/>
</svg>
