<svg width="157" height="51" viewBox="0 0 157 51" fill="none" xmlns="http://www.w3.org/2000/svg">
<path d="M26.7206 0.0966835C25.8457 0.364979 25.1108 1.04155 24.8542 1.79977C24.7608 2.06806 24.6559 2.20804 24.5625 2.16138C23.8393 1.88142 23.4194 1.84642 22.8361 2.0214C20.7481 2.62798 20.7014 5.56754 22.7545 6.18578L23.2211 6.32576V7.01399C23.2211 7.45726 23.1744 7.71389 23.0811 7.73722C22.9994 7.76055 22.1946 7.98218 21.2964 8.21548C19.4416 8.71707 18.5901 9.06702 16.6887 10.1169C14.974 11.0734 14.5307 11.3767 13.2009 12.5198C10.1797 15.1211 7.68338 18.8306 6.59854 22.3534L6.15527 23.7765L6.48189 24.2081C6.66853 24.4531 6.93682 24.943 7.08847 25.2929C7.3451 25.9345 7.35676 26.0162 7.35676 30.6355V35.3365L7.05347 35.5348C6.80851 35.6981 6.76185 35.7914 6.82017 36.083C6.91349 36.5729 8.14998 39.0692 8.75655 40.0024C9.88805 41.7288 10.098 42.0088 11.1829 43.187C14.449 46.7214 18.4968 48.9378 23.3494 49.8126C25.2624 50.1626 28.6569 50.2442 30.4533 49.9876C33.3579 49.556 35.1543 49.0311 37.394 47.9346C40.0536 46.6281 42.0833 45.1 44.1596 42.837L45.5244 41.3556L44.8362 40.7023C43.8447 39.7691 42.1416 38.2294 41.535 37.7278C41.2434 37.4828 40.7185 37.0045 40.3685 36.6663L39.727 36.0364L39.552 36.293C37.9656 38.6843 36.1808 40.364 34.0111 41.4955C32.0631 42.5104 29.7301 42.9887 27.1872 42.872C23.2561 42.7087 20.6081 41.5305 17.9019 38.766C16.2688 37.1095 15.1373 35.0682 14.4374 32.5369C14.2274 31.7787 14.1924 31.3121 14.1924 29.0957C14.1807 27.3226 14.2274 26.3078 14.3441 25.8295C15.2189 21.9568 17.2486 18.8772 20.2465 16.8592C22.9994 15.0045 26.6506 14.1996 29.7884 14.7478C31.1649 14.9928 33.2179 15.7394 34.3028 16.3926C36.2625 17.5708 37.6739 18.9356 38.9221 20.8369C39.2837 21.3735 39.622 21.8051 39.6686 21.7818C39.8436 21.7235 43.3198 18.7139 45.1861 17.0225L45.6411 16.6026L44.4513 15.2728C41.7683 12.2399 38.9804 10.1869 35.6559 8.81039C35.271 8.64708 32.868 7.99385 31.8181 7.76055C31.5032 7.69056 31.4915 7.65556 31.5265 7.03732L31.5615 6.39575L32.1914 6.13912C32.9963 5.8125 33.4862 5.22926 33.5679 4.49437C33.6729 3.64283 33.5212 3.18789 32.9846 2.62798C32.2497 1.85809 31.6782 1.75311 30.395 2.14972C30.1967 2.20804 30.1267 2.12638 29.9401 1.68312C29.4502 0.469963 27.9454 -0.276592 26.7206 0.0966835ZM25.2041 5.12427C25.4141 5.33424 25.4374 5.50922 25.4374 7.39893V9.4403H26.1373H26.8372L26.8605 8.88038C26.8722 8.5771 26.8839 7.6089 26.8955 6.72237C26.8955 5.01929 26.9539 4.85598 27.4788 4.9143C27.9104 4.97263 28.027 5.42756 27.957 6.87401C27.922 7.62057 27.922 8.49544 27.9687 8.83372L28.0387 9.4403H28.7153H29.4035V7.42226C29.4035 5.27592 29.4968 4.89097 29.9867 4.89097C30.1034 4.89097 30.29 5.00762 30.3833 5.1476C30.535 5.36924 30.57 5.85917 30.57 8.12216V10.8401H32.9846C35.061 10.8401 35.4226 10.8634 35.6092 11.0384C35.8659 11.2717 35.8775 11.8549 35.6209 12.1466C35.4459 12.3449 35.0377 12.3565 27.4671 12.3565H19.5L19.255 12.0416C19.08 11.8199 19.0334 11.6333 19.08 11.4233C19.2083 10.8751 19.3716 10.8401 21.9029 10.8401H24.2709V8.05217C24.2709 5.67252 24.2942 5.22926 24.4576 5.07761C24.7025 4.83265 24.9242 4.84431 25.2041 5.12427ZM39.0387 13.418C39.5053 13.8846 39.552 13.8963 39.8786 13.768C40.3335 13.5814 40.8235 13.7213 40.9634 14.0829C41.1034 14.4446 40.9984 14.7712 40.6951 14.9345C40.4619 15.0628 40.4619 15.0628 40.7535 15.3661C40.9168 15.5411 41.0801 15.7977 41.1151 15.9377C41.1967 16.206 40.9168 16.9059 40.7301 16.9059C40.6718 16.9059 40.5435 16.9409 40.4502 16.9758C40.3452 17.0108 40.1469 16.9059 39.9719 16.7076C39.6686 16.3693 39.6453 16.3693 38.6888 16.4159C37.7556 16.4626 37.6856 16.4509 37.4056 16.171C37.0557 15.821 37.044 15.751 37.2657 15.4477C37.4173 15.2494 37.464 15.2378 37.7323 15.3778C37.9772 15.5177 38.0939 15.5177 38.3505 15.4011L38.6655 15.2611L38.1755 14.8178C37.7439 14.4212 37.4523 13.943 37.4523 13.628C37.4523 13.4064 38.0239 12.9398 38.2922 12.9398C38.4438 12.9398 38.7588 13.1497 39.0387 13.418ZM17.6452 13.2547C17.9602 13.5347 17.9135 14.0596 17.5636 14.2929C17.167 14.5495 16.7587 14.4329 16.5721 13.9896C16.2804 13.2897 17.0737 12.7415 17.6452 13.2547ZM15.7322 15.2028C15.7905 15.7277 15.2889 15.9493 15.0556 15.5061C14.8457 15.1211 15.0206 14.7828 15.3822 14.8295C15.6272 14.8528 15.7089 14.9345 15.7322 15.2028ZM14.4607 15.856C14.5074 15.856 14.6124 15.996 14.6823 16.1593C14.8806 16.5792 14.5774 17.1275 14.1574 17.1392C13.9241 17.1392 13.5392 16.6959 13.5392 16.4393C13.5392 16.136 13.9708 15.7044 14.2041 15.786C14.2974 15.821 14.414 15.856 14.4607 15.856ZM16.5487 16.4626C16.6304 16.5442 16.6887 16.7076 16.6887 16.8475C16.6887 17.1742 16.4671 17.3725 16.1055 17.3725C15.7322 17.3725 15.5106 16.9758 15.6505 16.5792C15.7555 16.2876 16.3038 16.2176 16.5487 16.4626ZM12.3494 18.8539C12.5243 18.9822 12.781 19.2622 12.9326 19.4721C13.1776 19.8338 13.1892 19.9621 13.1892 22.0618V24.2781L12.8509 24.6164C12.6176 24.8497 12.396 24.9547 12.1394 24.9547H11.7661L11.8128 30.5772L11.8594 36.2113L12.2327 36.8646C12.6293 37.5411 12.6876 37.9844 12.4777 38.4043C12.0811 39.1742 11.3928 39.4658 10.7746 39.1392C9.91138 38.696 9.72474 37.5761 10.3663 36.6779L10.7396 36.1413V30.5655V24.978L10.2613 24.8963C9.89972 24.838 9.73641 24.7214 9.56143 24.4414C9.35147 24.1148 9.32814 23.8932 9.36313 21.9101C9.39813 19.7638 9.39813 19.7404 9.71308 19.3322C9.88805 19.1105 10.203 18.8422 10.413 18.7256C10.9262 18.469 11.9178 18.5273 12.3494 18.8539ZM15.1606 41.4722C15.4639 41.8572 15.4756 42.1488 15.1723 42.4521C14.7057 42.9187 13.8891 42.627 13.8891 41.9971C13.8891 41.2039 14.694 40.8773 15.1606 41.4722ZM40.4502 41.4256C40.9868 41.9388 40.6485 42.6854 39.8786 42.6854C39.4937 42.6854 39.0854 42.3238 39.0854 41.9855C39.0854 41.6589 39.587 41.1689 39.9136 41.1689C40.0652 41.1689 40.2985 41.2856 40.4502 41.4256ZM18.3101 43.6302C19.395 44.855 18.8001 44.7851 27.1755 44.7851C32.2964 44.7851 34.5827 44.7501 34.8977 44.6567C35.4459 44.4818 36.0992 43.9568 36.4724 43.3736C36.7291 42.9537 36.7991 42.9187 37.2773 42.9187C37.7789 42.9187 37.8022 42.9303 37.8022 43.2686C37.8022 43.9102 37.2773 44.7501 36.5074 45.31C35.271 46.2198 35.5392 46.1965 27.1172 46.1615L19.6633 46.1265L18.8817 45.7532C17.6569 45.1817 16.6887 44.0502 16.6887 43.222C16.6887 42.942 16.7237 42.9187 17.1903 42.9187C17.6569 42.9187 17.7269 42.9653 18.3101 43.6302ZM27.8171 47.1297C28.307 47.5147 28.167 48.1446 27.5254 48.3429C27.2455 48.4362 26.7672 48.1562 26.6622 47.8296C26.5689 47.5263 26.7789 47.1297 27.1055 47.0014C27.4671 46.8614 27.4671 46.8614 27.8171 47.1297Z" fill="black"/>
<path d="M10.9963 37.5758C10.7863 37.7857 10.8213 37.9957 11.1013 38.1357C11.3813 38.2873 11.6729 38.1124 11.6729 37.7857C11.6729 37.4708 11.2413 37.3308 10.9963 37.5758Z" fill="black"/>
<path d="M12.5479 4.56451C11.5914 5.48604 10.7515 6.39591 10.6582 6.60587C10.5765 6.81584 10.5065 7.23578 10.5065 7.55073V8.12232L8.36017 10.2453C7.18201 11.4118 6.1205 12.4383 6.00385 12.52C5.87553 12.6017 5.53725 12.695 5.23396 12.73C4.80236 12.7766 4.53407 12.9166 3.92749 13.3949C2.24774 14.7363 1.74615 15.7745 2.34106 16.731C2.65601 17.2443 3.11094 17.4893 3.76418 17.4893C4.41742 17.4893 4.84902 17.221 5.89886 16.1245C6.83206 15.1563 7.10035 14.538 6.96037 13.6515C6.89038 13.2199 6.90205 13.2199 9.02507 11.0969L11.1597 8.97386L11.533 9.10217C11.743 9.17216 12.2329 9.20715 12.6062 9.18382C13.4577 9.1255 13.6677 8.98552 15.6508 7.10747C16.8989 5.92931 17.1555 5.63768 17.1555 5.35773C17.1555 5.08943 16.9339 4.79781 16.1407 3.9696C14.6709 2.45316 14.7526 2.44149 12.5479 4.56451ZM15.0325 4.14457C15.0558 4.31955 14.7875 4.65783 14.0643 5.34606C13.5161 5.87098 13.0028 6.29092 12.9212 6.25593C12.8395 6.2326 12.7695 6.08095 12.7462 5.92931C12.7229 5.69601 12.9095 5.45105 13.656 4.73948C14.6126 3.81796 14.9625 3.66631 15.0325 4.14457ZM15.989 5.0661C16.2107 5.3344 16.0357 5.60269 15.0558 6.46589C14.1693 7.23578 13.866 7.35243 13.7844 6.93249C13.761 6.76918 14.0177 6.45423 14.7176 5.80099C15.2541 5.31107 15.7324 4.90279 15.7674 4.89113C15.8141 4.89113 15.9074 4.97278 15.989 5.0661ZM4.37076 15.3429C4.77903 15.7395 4.46408 16.5561 3.8925 16.5561C3.57754 16.5561 3.1576 16.1711 3.1576 15.8795C3.1576 15.2729 3.95082 14.923 4.37076 15.3429Z" fill="black"/>
<path d="M37.488 3.84115C37.2781 3.9228 37.2197 4.03945 37.2197 4.3894C37.2314 5.62588 38.9695 7.90055 40.4976 8.6821C41.4424 9.17202 41.9207 9.25368 42.5856 9.09037C42.8772 9.02038 43.2038 8.95039 43.3088 8.93873C43.4371 8.92706 44.3587 9.75527 45.6651 11.0617L47.8115 13.2081L47.7532 13.8147C47.6598 14.7245 47.8698 15.1911 48.8497 16.2176C49.8995 17.3142 50.5411 17.6758 51.1477 17.5125C51.7892 17.3258 52.2325 16.9525 52.4425 16.3926C52.7341 15.6344 52.5475 15.2028 51.4276 14.0363C50.4244 12.9865 49.9578 12.7065 49.2696 12.7065C48.8497 12.7065 48.7214 12.6015 46.4584 10.3385C44.627 8.50712 44.102 7.91221 44.102 7.67891C44.102 6.40743 43.0405 5.07763 41.5241 4.44773C40.1593 3.88781 38.1296 3.58452 37.488 3.84115ZM42.9939 7.67891C42.9939 8.14551 42.7489 8.34381 42.3173 8.22716C42.0723 8.16884 42.0023 8.08718 42.0023 7.83056C42.0023 7.39895 42.2123 7.20065 42.6439 7.24731C42.9589 7.2823 42.9939 7.32896 42.9939 7.67891ZM51.171 15.2495C51.241 15.2961 51.3693 15.4594 51.4509 15.6111C51.5676 15.8444 51.5559 15.926 51.3693 16.1943C50.961 16.7309 50.4011 16.6376 50.1561 15.996C49.9345 15.4361 50.6577 14.8995 51.171 15.2495Z" fill="black"/>
<path d="M25.8465 18.2358C24.6916 18.504 23.8984 18.854 22.7903 19.5772C20.4339 21.1403 18.8475 23.5783 18.2409 26.5878C18.0076 27.7427 18.0076 30.1107 18.2526 31.3121C19.1975 36.0481 22.7553 39.2326 27.4212 39.5009C30.0692 39.6526 32.8688 38.6611 34.9218 36.853C35.7733 36.0948 35.7733 36.1064 35.0268 34.9633C34.6652 34.415 34.3035 33.8668 34.2336 33.7501C34.1052 33.5401 34.0702 33.5518 33.592 33.8901C32.9504 34.345 32.1105 34.7766 31.2707 35.0566C30.7574 35.2316 30.2908 35.2782 28.8793 35.2782H27.1296L26.3247 34.8816C23.2102 33.3535 21.9854 29.0025 23.6651 25.4797C24.75 23.2167 26.6047 22.1668 29.2876 22.3068C30.7457 22.3768 32.1339 22.8201 33.277 23.59C33.9419 24.0332 34.0003 24.0566 34.1169 23.8583C34.1869 23.7299 34.5485 23.17 34.9101 22.6101L35.575 21.5836L35.2951 21.2453C34.8868 20.7554 33.1954 19.5072 32.4138 19.1106C30.9557 18.3757 30.0692 18.1658 28.2378 18.1191C27.0596 18.0841 26.3364 18.1191 25.8465 18.2358Z" fill="black"/>
<path d="M47.3101 19.997C46.7269 20.5686 47.0068 21.3151 47.9167 21.6767C48.325 21.8401 48.6049 22.3533 48.4766 22.7383C48.43 22.8666 48.115 23.1699 47.7651 23.4032C47.1468 23.8114 47.0652 23.9397 47.2051 24.3014C47.3218 24.593 47.7651 24.523 48.3716 24.1031C49.1299 23.6015 49.4681 23.0765 49.4681 22.4C49.4681 21.7234 49.1648 21.2102 48.5349 20.8135C48.0917 20.5336 48.0683 20.4869 48.1383 20.1136C48.2083 19.7287 48.1967 19.7054 47.905 19.7054C47.7301 19.7054 47.4618 19.8337 47.3101 19.997Z" fill="black"/>
<path d="M50.4127 20.009C50.086 20.4289 50.0977 21.0005 50.436 21.3154C50.5876 21.4554 50.7626 21.5721 50.8326 21.5721C50.9026 21.5721 51.0892 21.677 51.2642 21.817C51.7308 22.1903 51.6841 22.7502 51.1475 23.1702C50.1327 23.9517 50.121 23.9634 50.2727 24.2317C50.4593 24.5699 50.6926 24.5583 51.4042 24.1383C52.874 23.2985 52.9906 21.6071 51.6258 20.8138C51.2292 20.5805 51.1125 20.4406 51.1709 20.3006C51.3225 19.9156 51.2759 19.764 50.9726 19.729C50.7509 19.7057 50.5876 19.7757 50.4127 20.009Z" fill="black"/>
<path d="M1.89746 21.0122C1.67583 21.2338 1.72249 21.782 1.99078 21.922C2.20075 22.0387 2.22408 22.167 2.22408 23.4735V24.8966L1.64083 25.1649C0.905941 25.5032 0.416014 26.1447 0.24104 26.9963C0.159385 27.3812 0.12439 28.641 0.14772 30.2975C0.182715 32.8171 0.19438 33.0037 0.427679 33.3187L0.672642 33.6453L3.13394 33.6803L5.60691 33.7036L5.66524 33.4353C5.7119 33.2837 5.72356 31.6622 5.70023 29.8425C5.66524 26.6113 5.65357 26.518 5.38528 26.0514C5.22197 25.7598 4.87202 25.4098 4.48708 25.1765L3.86884 24.7799L3.85717 23.4151C3.85717 22.167 3.8805 22.0387 4.09047 21.922C4.35876 21.782 4.40542 21.2338 4.18379 21.0122C3.99715 20.8255 2.0841 20.8255 1.89746 21.0122ZM2.35239 26.308C2.46904 26.448 2.46904 26.5297 2.36406 26.6813C1.78081 27.5095 1.81581 27.2529 1.76915 31.3356C1.75748 32.7471 1.73415 32.8871 1.54751 32.8871C1.09258 32.8871 1.05759 32.7004 1.05759 30.1225C1.05759 27.4979 1.10425 27.2296 1.64083 26.4597C1.92079 26.0747 2.11909 26.0281 2.35239 26.308Z" fill="black"/>
<path d="M45.1631 25.7011C45.0581 25.8178 45.0347 26.4944 45.0581 28.0691L45.0931 30.2738L45.4663 31.0204C46.0146 32.1402 46.4229 32.5601 47.4377 33.0734C48.2893 33.505 48.3942 33.5283 49.3974 33.5283C50.3656 33.5283 50.5289 33.4933 51.2405 33.1434C52.267 32.6418 52.6753 32.2918 53.1069 31.522C53.3052 31.172 53.5385 30.9037 53.6435 30.9037C53.9584 30.9037 54.9849 30.3788 55.2649 30.0755C55.6265 29.6789 55.9998 28.8157 55.9998 28.3491C55.9998 27.1943 55.3465 26.2961 54.1567 25.8411L53.3752 25.5378H49.3391C45.9796 25.5378 45.268 25.5612 45.1631 25.7011ZM52.7103 27.4276L52.6753 28.2791L49.6541 28.3141L46.6328 28.3374L46.6912 29.1306C46.7612 30.0755 47.0411 30.6587 47.7643 31.3703C48.3243 31.9069 48.4176 32.1519 48.1259 32.2568C47.706 32.4202 46.6678 31.4403 46.2596 30.4954C46.0496 30.0172 45.863 27.1593 46.0029 26.7743C46.0729 26.611 46.5045 26.5877 49.4091 26.5877H52.7453L52.7103 27.4276ZM54.39 27.0543C55.0666 27.5792 55.1832 28.4657 54.6933 29.189C54.495 29.4573 53.9351 29.8539 53.7251 29.8539C53.6435 29.8539 53.6551 27.2409 53.7368 27.0076C53.8301 26.7627 54.0401 26.7743 54.39 27.0543Z" fill="black"/>
<path d="M0.218232 35.8143C-0.0967214 35.9893 -0.0617266 36.6775 0.264892 36.8992C0.63817 37.1675 0.894798 37.1325 1.16309 36.7708C1.67635 36.1293 0.941458 35.3827 0.218232 35.8143Z" fill="black"/>
<path d="M3.64793 35.8264C3.44963 36.0247 3.47296 36.6896 3.69459 36.8995C4.10287 37.3078 4.7911 36.9462 4.7911 36.3163C4.7911 35.8147 3.99788 35.4764 3.64793 35.8264Z" fill="black"/>
<path d="M45.3262 35.8494C45.1979 35.9427 45.1162 36.1527 45.1162 36.386C45.1162 37.0392 45.7461 37.3075 46.2011 36.8526C46.8193 36.2343 46.0377 35.3245 45.3262 35.8494Z" fill="black"/>
<path d="M48.838 35.943C48.733 36.083 48.6514 36.2813 48.6514 36.3863C48.6514 36.4913 48.733 36.6896 48.838 36.8295C49.1996 37.3545 50.0512 37.0278 50.0512 36.3629C50.0512 35.7447 49.188 35.4414 48.838 35.943Z" fill="black"/>
<path d="M52.5824 35.8966C52.2092 36.3049 52.4658 37.0864 52.9791 37.0864C53.3057 37.0864 53.6673 36.7248 53.6673 36.3982C53.6673 35.78 52.9674 35.465 52.5824 35.8966Z" fill="black"/>
<path d="M4.23124 39.2208C3.98627 39.4891 3.97461 39.5707 3.97461 42.7086C3.97461 45.7765 3.98627 45.9281 4.21957 46.2314C4.5112 46.6047 5.03612 46.6397 5.3744 46.3014C5.59604 46.0797 5.6077 45.9164 5.6077 42.7436C5.6077 39.5707 5.59604 39.4074 5.3744 39.1858C5.05945 38.8708 4.54619 38.8825 4.23124 39.2208Z" fill="black"/>
<path d="M48.7555 39.1744L48.4756 39.3961V42.7206C48.4756 45.8234 48.4873 46.0567 48.6972 46.29C49.0005 46.6283 49.5838 46.6167 49.9104 46.2667C50.167 45.9984 50.167 45.9168 50.167 42.7089C50.167 39.571 50.1553 39.4077 49.9337 39.1861C49.6421 38.8945 49.1055 38.8828 48.7555 39.1744Z" fill="black"/>
<path d="M75.2757 15.1157H72.165C72.1081 14.7133 71.9921 14.3558 71.8169 14.0433C71.6418 13.726 71.4168 13.4562 71.1422 13.2336C70.8676 13.0111 70.5504 12.8406 70.1905 12.7223C69.8354 12.6039 69.4495 12.5447 69.0328 12.5447C68.28 12.5447 67.6242 12.7317 67.0655 13.1058C66.5068 13.4751 66.0736 14.0149 65.7658 14.7251C65.458 15.4306 65.3042 16.2876 65.3042 17.2961C65.3042 18.3331 65.458 19.2043 65.7658 19.9098C66.0783 20.6152 66.5139 21.1479 67.0726 21.5078C67.6313 21.8676 68.2776 22.0475 69.0115 22.0475C69.4235 22.0475 69.8046 21.9931 70.155 21.8842C70.5101 21.7753 70.825 21.6167 71.0996 21.4083C71.3742 21.1953 71.6015 20.9372 71.7814 20.6342C71.9661 20.3312 72.0939 19.9855 72.165 19.5973L75.2757 19.6115C75.1953 20.2791 74.994 20.923 74.6721 21.5433C74.3548 22.1588 73.9263 22.7104 73.3865 23.1981C72.8515 23.6811 72.2123 24.0646 71.4689 24.3487C70.7303 24.628 69.8946 24.7677 68.9618 24.7677C67.6645 24.7677 66.5044 24.4742 65.4817 23.887C64.4637 23.2999 63.6588 22.45 63.0669 21.3373C62.4798 20.2246 62.1863 18.8776 62.1863 17.2961C62.1863 15.7099 62.4846 14.3605 63.0811 13.2478C63.6777 12.1351 64.4874 11.2876 65.5101 10.7052C66.5328 10.1181 67.6834 9.82453 68.9618 9.82453C69.8046 9.82453 70.5859 9.9429 71.3056 10.1796C72.03 10.4164 72.6716 10.762 73.2303 11.2166C73.789 11.6664 74.2435 12.218 74.5939 12.8714C74.949 13.5248 75.1763 14.2729 75.2757 15.1157ZM90.8475 17.2961C90.8475 18.8823 90.5468 20.2317 89.9455 21.3444C89.3489 22.4571 88.5345 23.307 87.5023 23.8941C86.4748 24.4765 85.3195 24.7677 84.0364 24.7677C82.7438 24.7677 81.5837 24.4742 80.5563 23.887C79.5288 23.2999 78.7168 22.45 78.1202 21.3373C77.5236 20.2246 77.2253 18.8776 77.2253 17.2961C77.2253 15.7099 77.5236 14.3605 78.1202 13.2478C78.7168 12.1351 79.5288 11.2876 80.5563 10.7052C81.5837 10.1181 82.7438 9.82453 84.0364 9.82453C85.3195 9.82453 86.4748 10.1181 87.5023 10.7052C88.5345 11.2876 89.3489 12.1351 89.9455 13.2478C90.5468 14.3605 90.8475 15.7099 90.8475 17.2961ZM87.7296 17.2961C87.7296 16.2687 87.5757 15.4022 87.2679 14.6967C86.9649 13.9912 86.5364 13.4562 85.9824 13.0916C85.4284 12.727 84.7798 12.5447 84.0364 12.5447C83.293 12.5447 82.6444 12.727 82.0904 13.0916C81.5364 13.4562 81.1055 13.9912 80.7978 14.6967C80.4947 15.4022 80.3432 16.2687 80.3432 17.2961C80.3432 18.3236 80.4947 19.1901 80.7978 19.8956C81.1055 20.601 81.5364 21.1361 82.0904 21.5007C82.6444 21.8652 83.293 22.0475 84.0364 22.0475C84.7798 22.0475 85.4284 21.8652 85.9824 21.5007C86.5364 21.1361 86.9649 20.601 87.2679 19.8956C87.5757 19.1901 87.7296 18.3236 87.7296 17.2961ZM106.492 17.2961C106.492 18.8823 106.191 20.2317 105.59 21.3444C104.993 22.4571 104.179 23.307 103.147 23.8941C102.119 24.4765 100.964 24.7677 99.6809 24.7677C98.3883 24.7677 97.2283 24.4742 96.2008 23.887C95.1734 23.2999 94.3613 22.45 93.7647 21.3373C93.1681 20.2246 92.8699 18.8776 92.8699 17.2961C92.8699 15.7099 93.1681 14.3605 93.7647 13.2478C94.3613 12.1351 95.1734 11.2876 96.2008 10.7052C97.2283 10.1181 98.3883 9.82453 99.6809 9.82453C100.964 9.82453 102.119 10.1181 103.147 10.7052C104.179 11.2876 104.993 12.1351 105.59 13.2478C106.191 14.3605 106.492 15.7099 106.492 17.2961ZM103.374 17.2961C103.374 16.2687 103.22 15.4022 102.912 14.6967C102.609 13.9912 102.181 13.4562 101.627 13.0916C101.073 12.727 100.424 12.5447 99.6809 12.5447C98.9376 12.5447 98.2889 12.727 97.7349 13.0916C97.1809 13.4562 96.7501 13.9912 96.4423 14.6967C96.1393 15.4022 95.9877 16.2687 95.9877 17.2961C95.9877 18.3236 96.1393 19.1901 96.4423 19.8956C96.7501 20.601 97.1809 21.1361 97.7349 21.5007C98.2889 21.8652 98.9376 22.0475 99.6809 22.0475C100.424 22.0475 101.073 21.8652 101.627 21.5007C102.181 21.1361 102.609 20.601 102.912 19.8956C103.22 19.1901 103.374 18.3236 103.374 17.2961ZM108.77 24.5688V10.0234H111.845V16.4367H112.037L117.271 10.0234H120.958L115.56 16.5362L121.021 24.5688H117.343L113.358 18.5887L111.845 20.4353V24.5688H108.77ZM125.634 10.0234V24.5688H122.559V10.0234H125.634ZM140.331 10.0234V24.5688H137.675L131.346 15.414H131.24V24.5688H128.165V10.0234H130.863L137.142 19.1711H137.27V10.0234H140.331ZM152.517 14.7251C152.417 14.3795 152.277 14.0741 152.097 13.8089C151.918 13.539 151.697 13.3117 151.437 13.1271C151.181 12.9377 150.888 12.7933 150.556 12.6938C150.23 12.5944 149.867 12.5447 149.47 12.5447C148.726 12.5447 148.073 12.7294 147.509 13.0987C146.951 13.468 146.515 14.0054 146.203 14.7109C145.89 15.4117 145.734 16.2687 145.734 17.2819C145.734 18.2952 145.888 19.1569 146.195 19.8671C146.503 20.5774 146.939 21.1195 147.502 21.4936C148.066 21.8629 148.731 22.0475 149.498 22.0475C150.194 22.0475 150.788 21.9244 151.281 21.6782C151.778 21.4273 152.157 21.0745 152.417 20.62C152.682 20.1654 152.815 19.628 152.815 19.0078L153.44 19.1001H149.69V16.7848H155.776V18.6171C155.776 19.8956 155.507 20.994 154.967 21.9126C154.427 22.8264 153.684 23.5319 152.737 24.0291C151.79 24.5215 150.705 24.7677 149.484 24.7677C148.12 24.7677 146.922 24.467 145.89 23.8657C144.858 23.2597 144.053 22.4003 143.475 21.2876C142.902 20.1702 142.616 18.8444 142.616 17.3103C142.616 16.1313 142.786 15.0802 143.127 14.1569C143.473 13.2289 143.956 12.4429 144.576 11.799C145.196 11.155 145.919 10.665 146.742 10.3288C147.566 9.99262 148.459 9.82453 149.42 9.82453C150.244 9.82453 151.011 9.94527 151.721 10.1867C152.431 10.4235 153.061 10.7597 153.61 11.1953C154.164 11.6309 154.616 12.1493 154.967 12.7507C155.317 13.3473 155.542 14.0054 155.642 14.7251H152.517ZM72.5238 39.7691C72.2425 39.7691 72.0011 39.6697 71.7994 39.4708C71.6005 39.2691 71.5011 39.0277 71.5011 38.7464C71.5011 38.468 71.6005 38.2294 71.7994 38.0305C72.0011 37.8316 72.2425 37.7322 72.5238 37.7322C72.7965 37.7322 73.0352 37.8316 73.2397 38.0305C73.4442 38.2294 73.5465 38.468 73.5465 38.7464C73.5465 38.9339 73.4982 39.1058 73.4016 39.262C73.3079 39.4154 73.1843 39.539 73.0309 39.6328C72.8775 39.7237 72.7085 39.7691 72.5238 39.7691ZM78.8754 39.7691C78.5941 39.7691 78.3526 39.6697 78.1509 39.4708C77.9521 39.2691 77.8526 39.0277 77.8526 38.7464C77.8526 38.468 77.9521 38.2294 78.1509 38.0305C78.3526 37.8316 78.5941 37.7322 78.8754 37.7322C79.1481 37.7322 79.3867 37.8316 79.5913 38.0305C79.7958 38.2294 79.8981 38.468 79.8981 38.7464C79.8981 38.9339 79.8498 39.1058 79.7532 39.262C79.6594 39.4154 79.5359 39.539 79.3825 39.6328C79.229 39.7237 79.06 39.7691 78.8754 39.7691ZM91.9002 36.897H90.0337C89.9996 36.6555 89.93 36.441 89.8249 36.2535C89.7198 36.0632 89.5849 35.9012 89.4201 35.7677C89.2553 35.6342 89.065 35.5319 88.8491 35.4609C88.636 35.3899 88.4045 35.3544 88.1545 35.3544C87.7028 35.3544 87.3093 35.4666 86.9741 35.691C86.6388 35.9126 86.3789 36.2365 86.1942 36.6626C86.0096 37.0859 85.9173 37.6001 85.9173 38.2052C85.9173 38.8274 86.0096 39.3501 86.1942 39.7734C86.3817 40.1967 86.6431 40.5163 86.9783 40.7322C87.3136 40.9481 87.7013 41.0561 88.1417 41.0561C88.3888 41.0561 88.6175 41.0234 88.8278 40.9581C89.0408 40.8927 89.2298 40.7975 89.3945 40.6725C89.5593 40.5447 89.6957 40.3899 89.8036 40.2081C89.9144 40.0262 89.9911 39.8188 90.0337 39.5859L91.9002 39.5944C91.8519 39.995 91.7312 40.3813 91.538 40.7535C91.3477 41.1228 91.0906 41.4538 90.7667 41.7464C90.4457 42.0362 90.0621 42.2663 89.6161 42.4367C89.1729 42.6044 88.6715 42.6882 88.1119 42.6882C87.3335 42.6882 86.6374 42.512 86.0238 42.1598C85.413 41.8075 84.93 41.2975 84.5749 40.6299C84.2227 39.9623 84.0465 39.1541 84.0465 38.2052C84.0465 37.2535 84.2255 36.4438 84.5835 35.7762C84.9414 35.1086 85.4272 34.6001 86.0408 34.2507C86.6545 33.8984 87.3448 33.7223 88.1119 33.7223C88.6175 33.7223 89.0863 33.7933 89.5181 33.9353C89.9528 34.0774 90.3377 34.2848 90.6729 34.5575C91.0082 34.8274 91.2809 35.1583 91.4911 35.5504C91.7042 35.9424 91.8406 36.3913 91.9002 36.897ZM94.5636 42.5688H92.5863L95.5991 33.8416H97.9769L100.985 42.5688H99.0082L96.8221 35.8359H96.7539L94.5636 42.5688ZM94.44 39.1384H99.1104V40.5788H94.44V39.1384ZM109.336 33.8416V42.5688H107.742L103.945 37.0759H103.881V42.5688H102.036V33.8416H103.655L107.422 39.3302H107.499V33.8416H109.336ZM112.437 33.8416L114.546 40.4723H114.627L116.741 33.8416H118.786L115.778 42.5688H113.4L110.387 33.8416H112.437ZM120.181 42.5688H118.203L121.216 33.8416H123.594L126.603 42.5688H124.625L122.439 35.8359H122.371L120.181 42.5688ZM120.057 39.1384H124.728V40.5788H120.057V39.1384ZM132.188 36.3515C132.154 36.0078 132.008 35.7407 131.749 35.5504C131.491 35.36 131.14 35.2649 130.697 35.2649C130.396 35.2649 130.141 35.3075 129.934 35.3927C129.727 35.4751 129.567 35.5902 129.457 35.7379C129.349 35.8856 129.295 36.0532 129.295 36.2407C129.289 36.397 129.322 36.5333 129.393 36.6498C129.467 36.7663 129.567 36.8671 129.695 36.9524C129.823 37.0348 129.971 37.1072 130.138 37.1697C130.306 37.2294 130.485 37.2805 130.675 37.3231L131.46 37.5106C131.84 37.5958 132.19 37.7095 132.508 37.8515C132.826 37.9936 133.102 38.1683 133.335 38.3757C133.567 38.5831 133.748 38.8274 133.876 39.1086C134.006 39.3899 134.073 39.7123 134.076 40.0759C134.073 40.61 133.937 41.0731 133.667 41.4652C133.4 41.8544 133.013 42.1569 132.508 42.3728C132.005 42.5859 131.398 42.6924 130.688 42.6924C129.984 42.6924 129.37 42.5845 128.847 42.3686C128.327 42.1527 127.921 41.8331 127.629 41.4098C127.339 40.9836 127.187 40.4566 127.173 39.8288H128.958C128.978 40.1214 129.062 40.3657 129.21 40.5617C129.36 40.7549 129.56 40.9012 129.81 41.0007C130.063 41.0973 130.349 41.1456 130.667 41.1456C130.979 41.1456 131.251 41.1001 131.481 41.0092C131.714 40.9183 131.894 40.7919 132.022 40.6299C132.15 40.468 132.214 40.2819 132.214 40.0717C132.214 39.8757 132.156 39.7109 132.039 39.5774C131.925 39.4438 131.758 39.3302 131.536 39.2365C131.317 39.1427 131.049 39.0575 130.731 38.9808L129.781 38.7421C129.045 38.5632 128.464 38.2833 128.038 37.9027C127.612 37.522 127.4 37.0092 127.403 36.3643C127.4 35.8359 127.54 35.3742 127.825 34.9794C128.112 34.5845 128.505 34.2762 129.005 34.0546C129.505 33.8331 130.073 33.7223 130.71 33.7223C131.357 33.7223 131.923 33.8331 132.406 34.0546C132.891 34.2762 133.269 34.5845 133.539 34.9794C133.809 35.3742 133.948 35.8316 133.957 36.3515H132.188ZM139.121 39.7691C138.84 39.7691 138.599 39.6697 138.397 39.4708C138.198 39.2691 138.099 39.0277 138.099 38.7464C138.099 38.468 138.198 38.2294 138.397 38.0305C138.599 37.8316 138.84 37.7322 139.121 37.7322C139.394 37.7322 139.633 37.8316 139.837 38.0305C140.042 38.2294 140.144 38.468 140.144 38.7464C140.144 38.9339 140.096 39.1058 139.999 39.262C139.906 39.4154 139.782 39.539 139.629 39.6328C139.475 39.7237 139.306 39.7691 139.121 39.7691ZM145.473 39.7691C145.192 39.7691 144.95 39.6697 144.749 39.4708C144.55 39.2691 144.45 39.0277 144.45 38.7464C144.45 38.468 144.55 38.2294 144.749 38.0305C144.95 37.8316 145.192 37.7322 145.473 37.7322C145.746 37.7322 145.984 37.8316 146.189 38.0305C146.393 38.2294 146.496 38.468 146.496 38.7464C146.496 38.9339 146.447 39.1058 146.351 39.262C146.257 39.4154 146.134 39.539 145.98 39.6328C145.827 39.7237 145.658 39.7691 145.473 39.7691Z" fill="black"/>
</svg>
